<svg width="104" height="24" viewBox="0 0 104 24" fill="none" xmlns="http://www.w3.org/2000/svg">
<rect x="0.5" y="0.5" width="103" height="23" rx="11.5" stroke="#7C7C7C"/>
<path d="M15.2102 16H12.6321V8.72727H15.2315C15.9631 8.72727 16.5928 8.87287 17.1207 9.16406C17.6487 9.45289 18.0547 9.86837 18.3388 10.4105C18.6252 10.9527 18.7685 11.6013 18.7685 12.3565C18.7685 13.1141 18.6252 13.7652 18.3388 14.3097C18.0547 14.8542 17.6463 15.272 17.1136 15.5632C16.5833 15.8544 15.9489 16 15.2102 16ZM14.1697 14.6825H15.1463C15.6009 14.6825 15.9832 14.602 16.2933 14.4411C16.6058 14.2777 16.8402 14.0256 16.9964 13.6847C17.1551 13.3414 17.2344 12.8987 17.2344 12.3565C17.2344 11.8191 17.1551 11.38 16.9964 11.0391C16.8402 10.6982 16.607 10.4472 16.2969 10.2862C15.9867 10.1252 15.6044 10.0447 15.1499 10.0447H14.1697V14.6825ZM22.3649 16.1065C21.8038 16.1065 21.3208 15.9929 20.916 15.7656C20.5136 15.536 20.2034 15.2116 19.9856 14.7926C19.7678 14.3712 19.6589 13.8729 19.6589 13.2976C19.6589 12.7365 19.7678 12.2441 19.9856 11.8203C20.2034 11.3965 20.51 11.0663 20.9054 10.8295C21.3031 10.5928 21.7695 10.4744 22.3045 10.4744C22.6644 10.4744 22.9993 10.5324 23.3095 10.6484C23.622 10.7621 23.8942 10.9337 24.1262 11.1634C24.3606 11.393 24.5429 11.6818 24.6731 12.0298C24.8033 12.3755 24.8684 12.7803 24.8684 13.2443V13.6598H20.2626V12.7223H23.4444C23.4444 12.5045 23.3971 12.3116 23.3024 12.1435C23.2077 11.9754 23.0763 11.844 22.9082 11.7493C22.7425 11.6522 22.5495 11.6037 22.3294 11.6037C22.0997 11.6037 21.8961 11.657 21.7186 11.7635C21.5434 11.8677 21.4061 12.0085 21.3066 12.1861C21.2072 12.3613 21.1563 12.5566 21.1539 12.772V13.6634C21.1539 13.9332 21.2037 14.1664 21.3031 14.3629C21.4049 14.5594 21.5481 14.7109 21.7328 14.8175C21.9174 14.924 22.1364 14.9773 22.3897 14.9773C22.5578 14.9773 22.7117 14.9536 22.8514 14.9062C22.9911 14.8589 23.1106 14.7879 23.21 14.6932C23.3095 14.5985 23.3852 14.4825 23.4373 14.3452L24.8365 14.4375C24.7654 14.7737 24.6199 15.0672 24.3997 15.3182C24.1819 15.5668 23.9002 15.7609 23.5545 15.9006C23.2112 16.0379 22.8147 16.1065 22.3649 16.1065ZM25.8556 16V10.5455H27.3684V16H25.8556ZM26.6156 9.84233C26.3907 9.84233 26.1977 9.76776 26.0368 9.61861C25.8781 9.46709 25.7988 9.28598 25.7988 9.07528C25.7988 8.86695 25.8781 8.68821 26.0368 8.53906C26.1977 8.38755 26.3907 8.31179 26.6156 8.31179C26.8405 8.31179 27.0323 8.38755 27.1909 8.53906C27.3519 8.68821 27.4324 8.86695 27.4324 9.07528C27.4324 9.28598 27.3519 9.46709 27.1909 9.61861C27.0323 9.76776 26.8405 9.84233 26.6156 9.84233ZM29.8445 10.5455L30.8459 12.4524L31.8722 10.5455H33.424L31.8438 13.2727L33.4666 16H31.9219L30.8459 14.1143L29.7876 16H28.2251L29.8445 13.2727L28.282 10.5455H29.8445ZM35.8485 16.103C35.5005 16.103 35.1904 16.0426 34.9181 15.9219C34.6459 15.7988 34.4305 15.6177 34.2718 15.3786C34.1156 15.1371 34.0375 14.8364 34.0375 14.4766C34.0375 14.1735 34.0931 13.919 34.2044 13.7131C34.3156 13.5071 34.4672 13.3414 34.6589 13.2159C34.8507 13.0904 35.0685 12.9957 35.3123 12.9318C35.5585 12.8679 35.8166 12.8229 36.0865 12.7969C36.4037 12.7637 36.6594 12.733 36.8535 12.7045C37.0476 12.6738 37.1885 12.6288 37.2761 12.5696C37.3637 12.5104 37.4075 12.4228 37.4075 12.3068V12.2855C37.4075 12.0606 37.3365 11.8866 37.1944 11.7635C37.0547 11.6404 36.8559 11.5788 36.5978 11.5788C36.3256 11.5788 36.109 11.6392 35.948 11.7599C35.787 11.8783 35.6805 12.0275 35.6284 12.2074L34.2292 12.0938C34.3002 11.7623 34.4399 11.4759 34.6483 11.2344C34.8566 10.9905 35.1253 10.8035 35.4544 10.6733C35.7858 10.5407 36.1693 10.4744 36.6049 10.4744C36.908 10.4744 37.198 10.5099 37.475 10.581C37.7543 10.652 38.0017 10.7621 38.2172 10.9112C38.435 11.0604 38.6066 11.2521 38.7321 11.4865C38.8575 11.7185 38.9203 11.9967 38.9203 12.321V16H37.4856V15.2436H37.443C37.3554 15.4141 37.2382 15.5644 37.0914 15.6946C36.9447 15.8224 36.7683 15.9231 36.5623 15.9964C36.3564 16.0675 36.1184 16.103 35.8485 16.103ZM36.2818 15.0589C36.5043 15.0589 36.7008 15.0152 36.8713 14.9276C37.0417 14.8376 37.1755 14.7169 37.2725 14.5653C37.3696 14.4138 37.4181 14.2422 37.4181 14.0504V13.4716C37.3708 13.5024 37.3057 13.5308 37.2228 13.5568C37.1423 13.5805 37.0512 13.603 36.9494 13.6243C36.8476 13.6432 36.7458 13.661 36.644 13.6776C36.5422 13.6918 36.4499 13.7048 36.367 13.7166C36.1895 13.7427 36.0344 13.7841 35.9018 13.8409C35.7692 13.8977 35.6663 13.9747 35.5929 14.0717C35.5195 14.1664 35.4828 14.2848 35.4828 14.4268C35.4828 14.6328 35.5574 14.7902 35.7065 14.8991C35.858 15.0057 36.0498 15.0589 36.2818 15.0589ZM40.0939 16V10.5455H41.5605V11.4972H41.6174C41.7168 11.1586 41.8837 10.9029 42.1181 10.7301C42.3525 10.5549 42.6223 10.4673 42.9277 10.4673C43.0035 10.4673 43.0852 10.4721 43.1728 10.4815C43.2604 10.491 43.3373 10.504 43.4036 10.5206V11.8629C43.3326 11.8416 43.2343 11.8227 43.1088 11.8061C42.9834 11.7895 42.8685 11.7812 42.7644 11.7812C42.5418 11.7812 42.343 11.8298 42.1678 11.9268C41.995 12.0215 41.8577 12.1541 41.7559 12.3246C41.6564 12.495 41.6067 12.6915 41.6067 12.9141V16H40.0939ZM48.5101 16.0888C48.0958 16.0888 47.7206 15.9822 47.3844 15.7692C47.0506 15.5537 46.7855 15.2377 46.589 14.821C46.3948 14.402 46.2978 13.8883 46.2978 13.2798C46.2978 12.6548 46.3984 12.1352 46.5996 11.7209C46.8008 11.3042 47.0684 10.9929 47.4022 10.7869C47.7383 10.5786 48.1065 10.4744 48.5066 10.4744C48.812 10.4744 49.0665 10.5265 49.2701 10.6307C49.476 10.7325 49.6417 10.8603 49.7672 11.0142C49.8951 11.1657 49.9921 11.3149 50.0584 11.4616H50.1046V8.72727H51.6138V16H50.1223V15.1264H50.0584C49.9874 15.2779 49.8868 15.4283 49.7566 15.5774C49.6287 15.7242 49.4618 15.8461 49.2559 15.9432C49.0523 16.0402 48.8037 16.0888 48.5101 16.0888ZM48.9895 14.8849C49.2334 14.8849 49.4393 14.8187 49.6074 14.6861C49.7779 14.5511 49.9081 14.3629 49.998 14.1214C50.0904 13.88 50.1365 13.5971 50.1365 13.2727C50.1365 12.9484 50.0916 12.6667 50.0016 12.4276C49.9116 12.1884 49.7814 12.0038 49.611 11.8736C49.4405 11.7434 49.2334 11.6783 48.9895 11.6783C48.7409 11.6783 48.5314 11.7457 48.361 11.8807C48.1905 12.0156 48.0615 12.2027 47.9739 12.4418C47.8863 12.6809 47.8425 12.9579 47.8425 13.2727C47.8425 13.59 47.8863 13.8705 47.9739 14.1143C48.0639 14.3558 48.1929 14.5452 48.361 14.6825C48.5314 14.8175 48.7409 14.8849 48.9895 14.8849ZM55.3434 16.1065C54.7823 16.1065 54.2994 15.9929 53.8945 15.7656C53.4921 15.536 53.1819 15.2116 52.9641 14.7926C52.7463 14.3712 52.6374 13.8729 52.6374 13.2976C52.6374 12.7365 52.7463 12.2441 52.9641 11.8203C53.1819 11.3965 53.4885 11.0663 53.8839 10.8295C54.2816 10.5928 54.748 10.4744 55.283 10.4744C55.6429 10.4744 55.9779 10.5324 56.288 10.6484C56.6005 10.7621 56.8728 10.9337 57.1048 11.1634C57.3391 11.393 57.5214 11.6818 57.6516 12.0298C57.7818 12.3755 57.8469 12.7803 57.8469 13.2443V13.6598H53.2411V12.7223H56.4229C56.4229 12.5045 56.3756 12.3116 56.2809 12.1435C56.1862 11.9754 56.0548 11.844 55.8867 11.7493C55.721 11.6522 55.5281 11.6037 55.3079 11.6037C55.0782 11.6037 54.8746 11.657 54.6971 11.7635C54.5219 11.8677 54.3846 12.0085 54.2852 12.1861C54.1857 12.3613 54.1348 12.5566 54.1325 12.772V13.6634C54.1325 13.9332 54.1822 14.1664 54.2816 14.3629C54.3834 14.5594 54.5266 14.7109 54.7113 14.8175C54.896 14.924 55.1149 14.9773 55.3683 14.9773C55.5363 14.9773 55.6902 14.9536 55.8299 14.9062C55.9696 14.8589 56.0891 14.7879 56.1886 14.6932C56.288 14.5985 56.3638 14.4825 56.4158 14.3452L57.815 14.4375C57.744 14.7737 57.5984 15.0672 57.3782 15.3182C57.1604 15.5668 56.8787 15.7609 56.533 15.9006C56.1897 16.0379 55.7932 16.1065 55.3434 16.1065ZM65.687 12.1009L64.302 12.1861C64.2783 12.0677 64.2275 11.9612 64.1493 11.8665C64.0712 11.7694 63.9682 11.6925 63.8404 11.6357C63.7149 11.5765 63.5646 11.5469 63.3894 11.5469C63.155 11.5469 62.9573 11.5966 62.7963 11.696C62.6354 11.7931 62.5549 11.9233 62.5549 12.0866C62.5549 12.2169 62.6069 12.3269 62.7111 12.4169C62.8153 12.5069 62.994 12.5791 63.2473 12.6335L64.2346 12.8324C64.7649 12.9413 65.1602 13.1165 65.4206 13.358C65.681 13.5994 65.8113 13.9167 65.8113 14.3097C65.8113 14.6671 65.7059 14.9808 65.4952 15.2507C65.2869 15.5206 65.0004 15.7313 64.6358 15.8828C64.2736 16.032 63.8558 16.1065 63.3823 16.1065C62.6602 16.1065 62.0849 15.9562 61.6564 15.6555C61.2303 15.3525 60.9805 14.9406 60.9071 14.4197L62.3951 14.3416C62.44 14.5618 62.5489 14.7299 62.7218 14.8459C62.8946 14.9595 63.1159 15.0163 63.3858 15.0163C63.651 15.0163 63.8641 14.9654 64.025 14.8636C64.1884 14.7595 64.2712 14.6257 64.2736 14.4624C64.2712 14.325 64.2132 14.2126 64.0996 14.125C63.986 14.035 63.8108 13.9664 63.574 13.919L62.6294 13.7308C62.0968 13.6243 61.7002 13.4396 61.4398 13.1768C61.1818 12.9141 61.0527 12.5791 61.0527 12.1719C61.0527 11.8215 61.1474 11.5196 61.3368 11.2663C61.5286 11.013 61.7973 10.8177 62.1429 10.6804C62.4909 10.5431 62.8981 10.4744 63.3645 10.4744C64.0534 10.4744 64.5956 10.62 64.9909 10.9112C65.3887 11.2024 65.6207 11.599 65.687 12.1009ZM69.2496 16.1065C68.6886 16.1065 68.2056 15.9929 67.8008 15.7656C67.3983 15.536 67.0882 15.2116 66.8704 14.7926C66.6526 14.3712 66.5437 13.8729 66.5437 13.2976C66.5437 12.7365 66.6526 12.2441 66.8704 11.8203C67.0882 11.3965 67.3948 11.0663 67.7901 10.8295C68.1879 10.5928 68.6542 10.4744 69.1893 10.4744C69.5491 10.4744 69.8841 10.5324 70.1942 10.6484C70.5067 10.7621 70.779 10.9337 71.011 11.1634C71.2454 11.393 71.4277 11.6818 71.5579 12.0298C71.6881 12.3755 71.7532 12.7803 71.7532 13.2443V13.6598H67.1474V12.7223H70.3292C70.3292 12.5045 70.2818 12.3116 70.1871 12.1435C70.0924 11.9754 69.9611 11.844 69.793 11.7493C69.6272 11.6522 69.4343 11.6037 69.2141 11.6037C68.9845 11.6037 68.7809 11.657 68.6033 11.7635C68.4281 11.8677 68.2908 12.0085 68.1914 12.1861C68.092 12.3613 68.0411 12.5566 68.0387 12.772V13.6634C68.0387 13.9332 68.0884 14.1664 68.1879 14.3629C68.2897 14.5594 68.4329 14.7109 68.6175 14.8175C68.8022 14.924 69.0212 14.9773 69.2745 14.9773C69.4426 14.9773 69.5965 14.9536 69.7362 14.9062C69.8758 14.8589 69.9954 14.7879 70.0948 14.6932C70.1942 14.5985 70.27 14.4825 70.3221 14.3452L71.7212 14.4375C71.6502 14.7737 71.5046 15.0672 71.2844 15.3182C71.0666 15.5668 70.7849 15.7609 70.4393 15.9006C70.096 16.0379 69.6995 16.1065 69.2496 16.1065ZM75.1978 18.1591C74.7077 18.1591 74.2875 18.0916 73.9371 17.9567C73.5891 17.8241 73.3121 17.643 73.1062 17.4134C72.9002 17.1837 72.7665 16.9257 72.7049 16.6392L74.104 16.451C74.1467 16.5599 74.2141 16.6617 74.3065 16.7564C74.3988 16.8511 74.5207 16.9268 74.6722 16.9837C74.8261 17.0429 75.0131 17.0724 75.2333 17.0724C75.5624 17.0724 75.8335 16.992 76.0465 16.831C76.262 16.6723 76.3697 16.406 76.3697 16.032V15.0341H76.3058C76.2395 15.1856 76.14 15.3288 76.0075 15.4638C75.8749 15.5987 75.7044 15.7088 75.4961 15.794C75.2878 15.8793 75.0392 15.9219 74.7504 15.9219C74.3408 15.9219 73.9679 15.8272 73.6317 15.6378C73.2979 15.446 73.0316 15.1536 72.8327 14.7607C72.6362 14.3653 72.538 13.8658 72.538 13.2621C72.538 12.6442 72.6386 12.1281 72.8398 11.7138C73.0411 11.2995 73.3086 10.9893 73.6424 10.7834C73.9786 10.5774 74.3467 10.4744 74.7468 10.4744C75.0522 10.4744 75.3079 10.5265 75.5138 10.6307C75.7198 10.7325 75.8855 10.8603 76.011 11.0142C76.1388 11.1657 76.2371 11.3149 76.3058 11.4616H76.3626V10.5455H77.8647V16.0533C77.8647 16.5173 77.7511 16.9055 77.5238 17.218C77.2965 17.5305 76.9817 17.7649 76.5792 17.9212C76.1791 18.0798 75.7186 18.1591 75.1978 18.1591ZM75.2298 14.7855C75.4736 14.7855 75.6796 14.7251 75.8477 14.6044C76.0181 14.4813 76.1483 14.3061 76.2383 14.0788C76.3306 13.8492 76.3768 13.5746 76.3768 13.255C76.3768 12.9354 76.3318 12.6584 76.2418 12.424C76.1519 12.1873 76.0217 12.0038 75.8512 11.8736C75.6808 11.7434 75.4736 11.6783 75.2298 11.6783C74.9812 11.6783 74.7717 11.7457 74.6012 11.8807C74.4308 12.0133 74.3017 12.1979 74.2141 12.4347C74.1265 12.6714 74.0827 12.9448 74.0827 13.255C74.0827 13.5698 74.1265 13.8421 74.2141 14.0717C74.3041 14.299 74.4331 14.4754 74.6012 14.6009C74.7717 14.724 74.9812 14.7855 75.2298 14.7855ZM82.5664 13.6776V10.5455H84.0792V16H82.6268V15.0092H82.57C82.4469 15.3288 82.2421 15.5857 81.9556 15.7798C81.6715 15.974 81.3247 16.071 80.9151 16.071C80.5505 16.071 80.2298 15.9882 79.9528 15.8224C79.6758 15.6567 79.4592 15.4212 79.3029 15.1158C79.149 14.8104 79.0709 14.4446 79.0685 14.0185V10.5455H80.5813V13.7486C80.5837 14.0705 80.6701 14.325 80.8406 14.5121C81.011 14.6991 81.2395 14.7926 81.5259 14.7926C81.7082 14.7926 81.8787 14.7512 82.0373 14.6683C82.1959 14.5831 82.3237 14.4576 82.4208 14.2919C82.5202 14.1262 82.5688 13.9214 82.5664 13.6776ZM85.2892 16V10.5455H86.802V16H85.2892ZM86.0492 9.84233C85.8243 9.84233 85.6313 9.76776 85.4703 9.61861C85.3117 9.46709 85.2324 9.28598 85.2324 9.07528C85.2324 8.86695 85.3117 8.68821 85.4703 8.53906C85.6313 8.38755 85.8243 8.31179 86.0492 8.31179C86.2741 8.31179 86.4658 8.38755 86.6245 8.53906C86.7855 8.68821 86.8659 8.86695 86.8659 9.07528C86.8659 9.28598 86.7855 9.46709 86.6245 9.61861C86.4658 9.76776 86.2741 9.84233 86.0492 9.84233ZM88.0138 16V10.5455H89.4805V11.4972H89.5373C89.6367 11.1586 89.8036 10.9029 90.038 10.7301C90.2724 10.5549 90.5423 10.4673 90.8477 10.4673C90.9234 10.4673 91.0051 10.4721 91.0927 10.4815C91.1803 10.491 91.2572 10.504 91.3235 10.5206V11.8629C91.2525 11.8416 91.1542 11.8227 91.0288 11.8061C90.9033 11.7895 90.7885 11.7812 90.6843 11.7812C90.4618 11.7812 90.2629 11.8298 90.0877 11.9268C89.9149 12.0215 89.7776 12.1541 89.6758 12.3246C89.5763 12.495 89.5266 12.6915 89.5266 12.9141V16H88.0138Z" fill="white"/>
</svg>
